<svg width="16" height="16" viewBox="0 0 16 16" fill="none" xmlns="http://www.w3.org/2000/svg">
<path d="M7.34375 10.375C7.15625 10.5625 6.8125 10.5625 6.625 10.375L4.625 8.375C4.4375 8.1875 4.4375 7.84375 4.625 7.65625C4.8125 7.46875 5.15625 7.46875 5.34375 7.65625L7 9.3125L10.625 5.65625C10.8125 5.46875 11.1562 5.46875 11.3438 5.65625C11.5312 5.84375 11.5312 6.1875 11.3438 6.375L7.34375 10.375ZM16 8C16 12.4375 12.4062 16 8 16C3.5625 16 0 12.4375 0 8C0 3.59375 3.5625 0 8 0C12.4062 0 16 3.59375 16 8ZM8 1C4.125 1 1 4.15625 1 8C1 11.875 4.125 15 8 15C11.8438 15 15 11.875 15 8C15 4.15625 11.8438 1 8 1Z" fill="#121111"/>
</svg>
