<svg width="21" height="19" viewBox="0 0 21 19" fill="none" xmlns="http://www.w3.org/2000/svg">
<path d="M7.875 14.3125C7.875 14.6289 7.59375 14.875 7.3125 14.875C6.99609 14.875 6.75 14.6289 6.75 14.3125V10.9375C6.75 10.6562 6.99609 10.375 7.3125 10.375C7.59375 10.375 7.875 10.6562 7.875 10.9375V14.3125ZM10.125 10.375C10.4062 10.375 10.6875 10.6562 10.6875 10.9375V14.3125C10.6875 14.6289 10.4062 14.875 10.125 14.875C9.80859 14.875 9.5625 14.6289 9.5625 14.3125V10.9375C9.5625 10.6562 9.80859 10.375 10.125 10.375ZM13.5 14.3125C13.5 14.6289 13.2188 14.875 12.9375 14.875C12.6211 14.875 12.375 14.6289 12.375 14.3125V10.9375C12.375 10.6562 12.6211 10.375 12.9375 10.375C13.2188 10.375 13.5 10.6562 13.5 10.9375V14.3125ZM12.2695 0.53125L16.0664 7H19.6875C19.9688 7 20.25 7.28125 20.25 7.5625C20.25 7.87891 19.9688 8.125 19.6875 8.125H18.8438L16.7344 16.5625C16.4531 17.5469 15.5742 18.25 14.5547 18.25H5.66016C4.64062 18.25 3.76172 17.5469 3.48047 16.5625L1.40625 8.125H0.5625C0.246094 8.125 0 7.87891 0 7.5625C0 7.28125 0.246094 7 0.5625 7H4.14844L7.94531 0.53125C8.08594 0.285156 8.4375 0.179688 8.71875 0.355469C8.96484 0.496094 9.07031 0.847656 8.89453 1.12891L5.44922 7H14.7656L11.3203 1.12891C11.1445 0.847656 11.25 0.496094 11.4961 0.355469C11.7773 0.179688 12.1289 0.285156 12.2695 0.53125ZM4.57031 16.2812C4.71094 16.7734 5.16797 17.125 5.66016 17.125H14.5547C15.0469 17.125 15.5039 16.7734 15.6445 16.2812L17.6836 8.125H2.53125L4.57031 16.2812Z" fill="white"/>
</svg>
