<svg width="44" height="44" viewBox="0 0 44 44" fill="none" xmlns="http://www.w3.org/2000/svg">
<circle cx="22" cy="22" r="21.5" stroke="#ECECEC"/>
<path d="M22.125 18.6055C20.375 18.6055 18.9805 20.0273 18.9805 21.75C18.9805 23.5 20.375 24.8945 22.125 24.8945C23.8477 24.8945 25.2695 23.5 25.2695 21.75C25.2695 20.0273 23.8477 18.6055 22.125 18.6055ZM22.125 23.8008C21.0039 23.8008 20.0742 22.8984 20.0742 21.75C20.0742 20.6289 20.9766 19.7266 22.125 19.7266C23.2461 19.7266 24.1484 20.6289 24.1484 21.75C24.1484 22.8984 23.2461 23.8008 22.125 23.8008ZM26.1172 18.4961C26.1172 18.9062 25.7891 19.2344 25.3789 19.2344C24.9688 19.2344 24.6406 18.9062 24.6406 18.4961C24.6406 18.0859 24.9688 17.7578 25.3789 17.7578C25.7891 17.7578 26.1172 18.0859 26.1172 18.4961ZM28.1953 19.2344C28.1406 18.25 27.9219 17.375 27.2109 16.6641C26.5 15.9531 25.625 15.7344 24.6406 15.6797C23.6289 15.625 20.5938 15.625 19.582 15.6797C18.5977 15.7344 17.75 15.9531 17.0117 16.6641C16.3008 17.375 16.082 18.25 16.0273 19.2344C15.9727 20.2461 15.9727 23.2812 16.0273 24.293C16.082 25.2773 16.3008 26.125 17.0117 26.8633C17.75 27.5742 18.5977 27.793 19.582 27.8477C20.5938 27.9023 23.6289 27.9023 24.6406 27.8477C25.625 27.793 26.5 27.5742 27.2109 26.8633C27.9219 26.125 28.1406 25.2773 28.1953 24.293C28.25 23.2812 28.25 20.2461 28.1953 19.2344ZM26.8828 25.3594C26.6914 25.9062 26.2539 26.3164 25.7344 26.5352C24.9141 26.8633 23 26.7812 22.125 26.7812C21.2227 26.7812 19.3086 26.8633 18.5156 26.5352C17.9688 26.3164 17.5586 25.9062 17.3398 25.3594C17.0117 24.5664 17.0938 22.6523 17.0938 21.75C17.0938 20.875 17.0117 18.9609 17.3398 18.1406C17.5586 17.6211 17.9688 17.2109 18.5156 16.9922C19.3086 16.6641 21.2227 16.7461 22.125 16.7461C23 16.7461 24.9141 16.6641 25.7344 16.9922C26.2539 17.1836 26.6641 17.6211 26.8828 18.1406C27.2109 18.9609 27.1289 20.875 27.1289 21.75C27.1289 22.6523 27.2109 24.5664 26.8828 25.3594Z" fill="#121111"/>
</svg>
