<svg width="40" height="40" viewBox="0 0 40 40" fill="none" xmlns="http://www.w3.org/2000/svg">
<rect x="0.5" y="0.5" width="39" height="39" fill="white" stroke="#EAEAEA"/>
<path d="M20.125 16.6055C18.375 16.6055 16.9805 18.0273 16.9805 19.75C16.9805 21.5 18.375 22.8945 20.125 22.8945C21.8477 22.8945 23.2695 21.5 23.2695 19.75C23.2695 18.0273 21.8477 16.6055 20.125 16.6055ZM20.125 21.8008C19.0039 21.8008 18.0742 20.8984 18.0742 19.75C18.0742 18.6289 18.9766 17.7266 20.125 17.7266C21.2461 17.7266 22.1484 18.6289 22.1484 19.75C22.1484 20.8984 21.2461 21.8008 20.125 21.8008ZM24.1172 16.4961C24.1172 16.9062 23.7891 17.2344 23.3789 17.2344C22.9688 17.2344 22.6406 16.9062 22.6406 16.4961C22.6406 16.0859 22.9688 15.7578 23.3789 15.7578C23.7891 15.7578 24.1172 16.0859 24.1172 16.4961ZM26.1953 17.2344C26.1406 16.25 25.9219 15.375 25.2109 14.6641C24.5 13.9531 23.625 13.7344 22.6406 13.6797C21.6289 13.625 18.5938 13.625 17.582 13.6797C16.5977 13.7344 15.75 13.9531 15.0117 14.6641C14.3008 15.375 14.082 16.25 14.0273 17.2344C13.9727 18.2461 13.9727 21.2812 14.0273 22.293C14.082 23.2773 14.3008 24.125 15.0117 24.8633C15.75 25.5742 16.5977 25.793 17.582 25.8477C18.5938 25.9023 21.6289 25.9023 22.6406 25.8477C23.625 25.793 24.5 25.5742 25.2109 24.8633C25.9219 24.125 26.1406 23.2773 26.1953 22.293C26.25 21.2812 26.25 18.2461 26.1953 17.2344ZM24.8828 23.3594C24.6914 23.9062 24.2539 24.3164 23.7344 24.5352C22.9141 24.8633 21 24.7812 20.125 24.7812C19.2227 24.7812 17.3086 24.8633 16.5156 24.5352C15.9688 24.3164 15.5586 23.9062 15.3398 23.3594C15.0117 22.5664 15.0938 20.6523 15.0938 19.75C15.0938 18.875 15.0117 16.9609 15.3398 16.1406C15.5586 15.6211 15.9688 15.2109 16.5156 14.9922C17.3086 14.6641 19.2227 14.7461 20.125 14.7461C21 14.7461 22.9141 14.6641 23.7344 14.9922C24.2539 15.1836 24.6641 15.6211 24.8828 16.1406C25.2109 16.9609 25.1289 18.875 25.1289 19.75C25.1289 20.6523 25.2109 22.5664 24.8828 23.3594Z" fill="#121111"/>
</svg>
