<svg width="16" height="18" viewBox="0 0 16 18" fill="none" xmlns="http://www.w3.org/2000/svg">
<path d="M0.5 6H14.2812L11.125 9.15625C10.9375 9.34375 10.9375 9.6875 11.125 9.875C11.3125 10.0625 11.6562 10.0625 11.8438 9.875L15.8438 5.875C15.9375 5.78125 16 5.65625 16 5.5C16 5.375 15.9375 5.25 15.8438 5.15625L11.8438 1.15625C11.6562 0.96875 11.3125 0.96875 11.125 1.15625C10.9375 1.34375 10.9375 1.6875 11.125 1.875L14.2812 5H0.5C0.21875 5 0 5.25 0 5.5C0 5.78125 0.21875 6 0.5 6ZM15.5 12H1.6875L4.84375 8.875C5.03125 8.6875 5.03125 8.34375 4.84375 8.15625C4.65625 7.96875 4.3125 7.96875 4.125 8.15625L0.125 12.1562C0.03125 12.25 0 12.375 0 12.5C0 12.6562 0.03125 12.7812 0.125 12.875L4.125 16.875C4.3125 17.0625 4.65625 17.0625 4.84375 16.875C5.03125 16.6875 5.03125 16.3438 4.84375 16.1562L1.6875 13H15.5C15.75 13 16 12.7812 16 12.5C16 12.25 15.75 12 15.5 12Z" fill="#121111"/>
</svg>
