<svg width="44" height="44" viewBox="0 0 44 44" fill="none" xmlns="http://www.w3.org/2000/svg">
<circle cx="22" cy="22" r="21.5" stroke="#ECECEC"/>
<path d="M27.5508 18.9062C27.5508 19.043 27.5508 19.1523 27.5508 19.2891C27.5508 23.0898 24.6797 27.4375 19.4023 27.4375C17.7617 27.4375 16.2578 26.9727 15 26.1523C15.2188 26.1797 15.4375 26.207 15.6836 26.207C17.0234 26.207 18.2539 25.7422 19.2383 24.9766C17.9805 24.9492 16.9141 24.1289 16.5586 22.9805C16.75 23.0078 16.9141 23.0352 17.1055 23.0352C17.3516 23.0352 17.625 22.9805 17.8438 22.9258C16.5312 22.6523 15.5469 21.5039 15.5469 20.1094V20.082C15.9297 20.3008 16.3945 20.4102 16.8594 20.4375C16.0664 19.918 15.5742 19.043 15.5742 18.0586C15.5742 17.5117 15.7109 17.0195 15.957 16.6094C17.3789 18.332 19.5117 19.4805 21.8906 19.6172C21.8359 19.3984 21.8086 19.1797 21.8086 18.9609C21.8086 17.375 23.0938 16.0898 24.6797 16.0898C25.5 16.0898 26.2383 16.418 26.7852 16.9922C27.4141 16.8555 28.043 16.6094 28.5898 16.2812C28.3711 16.9648 27.9336 17.5117 27.332 17.8672C27.9062 17.8125 28.4805 17.6484 28.9727 17.4297C28.5898 18.0039 28.0977 18.4961 27.5508 18.9062Z" fill="#121111"/>
</svg>
