<svg width="16" height="19" viewBox="0 0 16 19" fill="none" xmlns="http://www.w3.org/2000/svg">
<path d="M7.875 9.25C10.3359 9.25 12.375 7.24609 12.375 4.75C12.375 2.28906 10.3359 0.25 7.875 0.25C5.37891 0.25 3.375 2.28906 3.375 4.75C3.375 7.24609 5.37891 9.25 7.875 9.25ZM7.875 1.375C9.70312 1.375 11.25 2.92188 11.25 4.75C11.25 6.61328 9.70312 8.125 7.875 8.125C6.01172 8.125 4.5 6.61328 4.5 4.75C4.5 2.92188 6.01172 1.375 7.875 1.375ZM9.63281 10.9375H6.08203C2.70703 10.9375 0 13.6797 0 17.0547C0 17.7227 0.527344 18.25 1.19531 18.25H14.5195C15.1875 18.25 15.75 17.7227 15.75 17.0547C15.75 13.6797 13.0078 10.9375 9.63281 10.9375ZM14.5195 17.125H1.19531C1.16016 17.125 1.125 17.0898 1.125 17.0547C1.125 14.3125 3.33984 12.0625 6.08203 12.0625H9.63281C12.375 12.0625 14.625 14.3125 14.625 17.0547C14.625 17.0898 14.5547 17.125 14.5195 17.125Z" fill="white"/>
</svg>
