<svg width="44" height="44" viewBox="0 0 44 44" fill="none" xmlns="http://www.w3.org/2000/svg">
<circle cx="22" cy="22" r="21.5" stroke="#ECECEC"/>
<path d="M29.0117 18.168C28.8477 17.5117 28.3281 16.9922 27.6992 16.8281C26.5234 16.5 21.875 16.5 21.875 16.5C21.875 16.5 17.1992 16.5 16.0234 16.8281C15.3945 16.9922 14.875 17.5117 14.7109 18.168C14.3828 19.3164 14.3828 21.7773 14.3828 21.7773C14.3828 21.7773 14.3828 24.2109 14.7109 25.3867C14.875 26.043 15.3945 26.5352 16.0234 26.6992C17.1992 27 21.875 27 21.875 27C21.875 27 26.5234 27 27.6992 26.6992C28.3281 26.5352 28.8477 26.043 29.0117 25.3867C29.3398 24.2109 29.3398 21.7773 29.3398 21.7773C29.3398 21.7773 29.3398 19.3164 29.0117 18.168ZM20.3438 23.9922V19.5625L24.2266 21.7773L20.3438 23.9922Z" fill="#121111"/>
</svg>
